<svg width="128" height="128" viewBox="0 0 128 128" fill="none" xmlns="http://www.w3.org/2000/svg">
<path d="M64 128C99.3462 128 128 99.3462 128 64C128 28.6538 99.3462 0 64 0C28.6538 0 0 28.6538 0 64C0 99.3462 28.6538 128 64 128Z" fill="#096DC4"/>
<path d="M100.89 57.49C99.238 49.2714 94.8728 41.846 88.4949 36.4057C82.117 30.9653 74.0962 27.8255 65.7199 27.49C67.2479 23.2771 67.1695 18.6488 65.4999 14.49C63.5425 18.9021 60.6409 22.8311 56.9999 26C55.4484 27.4645 53.6811 28.682 51.7599 29.61C49.8553 30.3437 47.9925 31.1817 46.1799 32.12C39.1224 36.0496 33.5136 42.1421 30.1799 49.5C28.2593 53.7563 27.1568 58.336 26.9299 63C31.0598 61.7078 35.2685 60.6823 39.5299 59.93C43.3099 59.27 47.1399 58.93 50.9399 58.42C57.9399 57.42 63.4499 53.36 67.3099 47.42C72.1894 48.9896 76.2741 52.3831 78.7113 56.8923C81.1485 61.4015 81.7498 66.6778 80.3898 71.6198C79.0298 76.5618 75.8135 80.7875 71.4124 83.4148C67.0113 86.0421 61.7654 86.868 56.7699 85.72C58.6956 90.0438 61.7361 93.778 65.5799 96.54C67.5367 97.9424 69.6767 99.0696 71.9399 99.89C72.9431 100.385 74.0516 100.629 75.1699 100.6C76.463 100.286 77.7174 99.8302 78.9099 99.24C86.8234 95.8723 93.3332 89.8782 97.341 82.2689C101.349 74.6595 102.609 65.9007 100.91 57.47L100.89 57.49ZM40.8099 45C41.894 43.9201 43.2115 43.1034 44.6608 42.6128C46.1102 42.1221 47.6528 41.9707 49.1699 42.17C49.3495 43.681 49.1843 45.213 48.6867 46.651C48.1892 48.089 47.3722 49.3955 46.2972 50.4724C45.2222 51.5493 43.9172 52.3686 42.4801 52.8688C41.043 53.3689 39.5112 53.5368 37.9999 53.36C37.798 51.8444 37.9464 50.3027 38.4335 48.8535C38.9206 47.4042 39.7336 46.0859 40.8099 45V45ZM60.4099 102.06C52.6077 101.252 45.2571 98.0111 39.3979 92.7961C33.5386 87.5811 29.4673 80.6558 27.7599 73C35.8951 68.5701 45.0492 66.3496 54.3099 66.56C51.1512 71.3607 49.6612 77.0679 50.0699 82.8C50.3199 86.5621 51.372 90.2272 53.1554 93.5491C54.9388 96.871 57.4124 99.773 60.4099 102.06V102.06Z" fill="white"/>
</svg>
