<svg width="128" height="128" viewBox="0 0 128 128" fill="none" xmlns="http://www.w3.org/2000/svg">
<path d="M64 128C99.3462 128 128 99.3462 128 64C128 28.6538 99.3462 0 64 0C28.6538 0 0 28.6538 0 64C0 99.3462 28.6538 128 64 128Z" fill="#63BB5B"/>
<path d="M99.7598 26.37C97.0498 23.99 86.2198 26.6 83.1398 26.97C72.9301 28.0875 62.8715 30.3071 53.1398 33.59C43.0898 37.14 34.8898 42.26 30.1398 52.19C27.2472 58.3909 26.1264 65.271 26.9012 72.0693C27.6759 78.8676 30.3162 85.319 34.5298 90.71C36.7198 88.38 39.8598 86.03 41.5898 83.35C43.8998 79.78 42.6398 72.65 42.8098 68.17C42.8598 66.85 43.3498 48.58 44.2398 48.52C45.3198 48.45 48.1098 66.38 49.1098 73.06C49.1472 73.2728 49.2413 73.4714 49.3822 73.6351C49.5231 73.7988 49.7056 73.9214 49.9104 73.99C50.1152 74.0586 50.3348 74.0707 50.5458 74.0249C50.7569 73.9792 50.9518 73.8773 51.1098 73.73C53.4898 71.3767 55.8798 69.0434 58.2798 66.73C59.9198 65.14 60.7398 64.52 61.1798 62.45C61.6198 60.38 61.2898 57.56 61.4298 55.37C61.5098 54.07 62.4298 37.61 63.6098 37.53C64.7898 37.45 67.2598 50.36 68.1798 55.19C68.2241 55.3521 68.3085 55.5003 68.4253 55.6211C68.542 55.7419 68.6873 55.8314 68.8477 55.8812C69.0082 55.931 69.1786 55.9396 69.3432 55.9062C69.5079 55.8728 69.6614 55.7985 69.7898 55.69C74.6498 50.98 89.7898 36.26 90.4998 36.92C91.2098 37.58 78.6398 54.48 74.6098 59.92C74.5192 60.0617 74.4658 60.2239 74.4544 60.3916C74.4431 60.5594 74.4743 60.7273 74.5451 60.8798C74.6159 61.0323 74.724 61.1645 74.8594 61.2642C74.9948 61.3638 75.1531 61.4278 75.3198 61.45C80.2298 61.72 93.3198 62.57 93.4298 63.65C93.5398 64.73 77.2098 67.93 76.0298 68.16C74.0298 68.57 71.7998 68.71 69.7998 69.23C67.2398 69.9 66.7998 70.53 65.1898 72.77C63.1898 75.4367 61.1898 78.1034 59.1898 80.77C59.0551 80.9479 58.9723 81.1595 58.9504 81.3815C58.9285 81.6034 58.9684 81.8272 59.0656 82.0279C59.1629 82.2286 59.3138 82.3986 59.5016 82.519C59.6893 82.6393 59.9067 82.7055 60.1298 82.71C66.8898 82.82 85.0198 83.23 85.1298 84.31C85.1798 85.21 67.1298 88.09 65.8298 88.31C61.6998 89.02 54.7198 88.74 51.4098 90.92C48.8598 92.6 46.5098 97.1 44.5698 99.48C50.274 102.846 56.7763 104.622 63.3998 104.622C70.0232 104.622 76.5255 102.846 82.2298 99.48C91.8298 93.75 96.2298 85.04 98.5698 74.48C100.676 64.2424 101.615 53.7991 101.37 43.35C101.37 39.55 101.23 35.74 100.85 31.96C100.7 30.69 100.83 27.31 99.7598 26.37Z" fill="white"/>
</svg>
