<svg width="128" height="128" viewBox="0 0 128 128" fill="none" xmlns="http://www.w3.org/2000/svg">
<path d="M64 128C99.3462 128 128 99.3462 128 64C128 28.6538 99.3462 0 64 0C28.6538 0 0 28.6538 0 64C0 99.3462 28.6538 128 64 128Z" fill="#74CEC0"/>
<path d="M60.13 64.2599L38.05 76.6999L16.76 63.9999L37.76 51.8499L60.13 64.2599ZM90 51.2999L67.87 63.7399L90.2 76.1899L111.2 64.0399L90 51.2999ZM61.45 35.2099L40.45 23.0699L40 47.8699L61.84 60.7799L61.45 35.2099ZM88 80.1299L66.16 67.2199L66.55 92.7899L87.55 104.93L88 80.1299ZM87.66 47.3999V23.0999L66 35.1799L65.73 60.5199L87.66 47.3999ZM62 92.8199L62.27 67.4799L40.34 80.5999V104.9L62 92.8199Z" fill="white"/>
</svg>
